<?xml version="1.0" encoding="UTF-8" standalone="no"?>
<!DOCTYPE svg PUBLIC "-//W3C//DTD SVG 1.1//EN" "http://www.w3.org/Graphics/SVG/1.1/DTD/svg11.dtd">
<!-- Gerado pelo Microsoft Visio, SVG Export gerenciador.svg Icons -->
<svg xmlns="http://www.w3.org/2000/svg" xmlns:xlink="http://www.w3.org/1999/xlink" xmlns:ev="http://www.w3.org/2001/xml-events"
		xmlns:v="http://schemas.microsoft.com/visio/2003/SVGExtensions/" width="9.0332in" height="7.77024in"
		viewBox="0 0 650.39 559.458" xml:space="preserve" color-interpolation-filters="sRGB" class="st10">
	<v:documentProperties v:langID="1046" v:viewMarkup="false"/>

	<style type="text/css">
	<![CDATA[
		.st1 {fill:#ff9811;stroke:none;stroke-linecap:butt;stroke-width:1.19529}
		.st2 {fill:#00a1a7;stroke:none;stroke-linecap:butt;stroke-width:1.19529}
		.st3 {fill:#bf3c1a;stroke:none;stroke-linecap:butt;stroke-width:1.19529}
		.st4 {fill:#ff5023;stroke:none;stroke-linecap:butt;stroke-width:1.19529}
		.st5 {fill:#00d7df;stroke:none;stroke-linecap:butt;stroke-width:1.19529}
		.st6 {fill:#00b050;stroke:none;stroke-linecap:butt;stroke-width:0.585938}
		.st7 {fill:#00b050;stroke:none;stroke-linecap:butt;stroke-width:18.75}
		.st8 {fill:#bf9000;stroke:none;stroke-linecap:butt;stroke-width:25}
		.st9 {fill:#ffda44;stroke:none;stroke-linecap:butt;stroke-width:1.19529}
		.st10 {fill:none;fill-rule:evenodd;font-size:12px;overflow:visible;stroke-linecap:square;stroke-miterlimit:3}
	]]>
	</style>

	<g v:mID="0" v:index="1" v:groupContext="foregroundPage">
		<title>Icons</title>
		<v:pageProperties v:drawingScale="1" v:pageScale="1" v:drawingUnits="19" v:shadowOffsetX="9" v:shadowOffsetY="-9"/>
		<g id="group414-1" transform="translate(22.5,-27.933)" v:mID="414" v:groupContext="group">
			<title>Planilha.414</title>
			<g id="group415-2" v:mID="415" v:groupContext="group">
				<title>Planilha.415</title>
				<g id="shape416-3" v:mID="416" v:groupContext="shape" transform="translate(0.352611,-196.336)">
					<title>Planilha.416</title>
					<path d="M29.69 472.75 C29.69 467.49 30.97 462.12 33.54 458.31 C36.1 454.5 39.63 452.66 44.12 452.66 C49.13 452.66
								 52.89 454.17 55.4 457.12 C57.91 460.07 59.17 464.04 59.17 469 C59.17 472.48 57.93 476.59 55.45 481.31
								 C52.97 486.03 48.62 491.4 43.37 497.42 L1.45 540.98 L1.45 559.46 L90.79 559.46 L90.79 538.44 L42.34
								 538.44 L42.08 537.41 L59.52 518.48 C70.85 506.15 78.62 496.73 82.85 490.47 C87.06 484.21 89.17 476.95
								 89.17 468.81 C89.17 456.71 85.2 447.15 77.27 440.18 C69.33 433.22 58.28 429.72 44.12 429.72 C30.78
								 429.72 20.07 433.86 11.98 442.15 C3.9 450.44 0 460.42 0.3 472.34 L0.47 472.75 L29.69 472.75 L29.69
								 472.75 Z" class="st1"/>
				</g>
				<g id="shape417-5" v:mID="417" v:groupContext="shape" transform="translate(1.80728,-390.773)">
					<title>Planilha.417</title>
					<path d="M28.9 535.81 L0 535.81 L0 559.46 L89.34 559.46 L89.34 535.81 L60.43 535.81 L60.43 429.16 L0 438.19 L0
								 459.61 L28.9 459.61 L28.9 535.81 Z" class="st2"/>
				</g>
				<g id="shape418-7" v:mID="418" v:groupContext="shape">
					<title>Planilha.418</title>
					<path d="M71.29 491.53 C77.37 488.75 82.22 484.9 85.85 479.98 C89.48 475.05 91.3 469.66 91.3 463.82 C91.3 452.08
								 87.11 443.01 78.73 436.6 C70.35 430.2 59.16 427 45.18 427 C33.14 427 22.9 430.18 14.46 436.56 C6.02
								 442.93 1.97 451.71 2.33 461.98 L2.51 462.97 L31.54 462.97 C31.54 457.72 33.01 456.08 35.97 453.84
								 C38.92 451.59 42.34 450.24 46.24 450.24 C51.19 450.24 54.97 451.52 57.57 454.29 C60.16 457.07 61.46
								 460.43 61.46 464.5 C61.46 469.64 60.02 473.89 57.13 476.79 C54.24 479.68 50.1 481.36 44.73 481.36
								 L30.71 481.36 L30.71 502.38 L44.73 502.38 C50.69 502.38 55.31 504.15 58.59 507.01 C61.86 509.87
								 63.5 514.59 63.5 520.85 C63.5 525.34 61.94 529.14 58.81 532.09 C55.68 535.04 51.49 536.55 46.24
								 536.55 C41.63 536.55 37.73 534.57 34.51 531.77 C31.29 528.97 29.68 526.03 29.68 520.78 L0.47 520.78
								 L0.29 521.91 C0 533.95 4.38 543.45 13.44 549.79 C22.5 556.13 33.08 559.46 45.17 559.46 C59.22 559.46
								 70.76 556.16 79.79 549.4 C88.82 542.64 93.33 533.4 93.33 521.59 C93.33 514.4 91.39 508.23 87.49
								 503.07 C83.59 497.9 78.19 494.07 71.29 491.53 Z" class="st3"/>
				</g>
			</g>
			<g id="shape419-9" v:mID="419" v:groupContext="shape" transform="translate(178.231,-46.317)">
				<title>Planilha.419</title>
				<rect x="-1.03917E-05" y="472.75" width="132.269" height="86.7076" class="st4"/>
			</g>
			<g id="group420-11" transform="translate(176.533,-392.817)" v:mID="420" v:groupContext="group">
				<title>Planilha.420</title>
				<g id="shape421-12" v:mID="421" v:groupContext="shape">
					<title>Planilha.421</title>
					<rect x="0" y="472.75" width="131.625" height="86.7076" class="st5"/>
				</g>
				<g id="shape422-14" v:mID="422" v:groupContext="shape" transform="translate(131.625,1.13687E-13)">
					<title>Planilha.422</title>
					<path d="M0 559.46 L22.16 559.46 C51.73 535.89 89.16 521.79 129.81 521.79 C170.47 521.79 207.9 535.89 237.46
								 559.46 L302.81 559.46 L302.81 472.75 L0.64 472.75 L0 472.75 L0 559.46 Z" class="st2"/>
				</g>
			</g>
			<g id="group423-16" transform="translate(279.928,-66.567)" v:mID="423" v:groupContext="group">
				<title>Planilha.423</title>
				<g id="group424-17" v:mID="424" v:groupContext="group">
					<title>Planilha.424</title>
					<g id="shape425-18" v:mID="425" v:groupContext="shape" transform="translate(0,-44.4645)">
						<title>Planilha.425</title>
						<path d="M28.96 413.52 C28.96 341.66 87.42 283.2 159.28 283.2 C231.14 283.2 289.61 341.66 289.61 413.52 C289.61
									 422.3 288.72 431.09 286.99 439.66 L315.37 445.41 C317.5 434.96 318.57 424.24 318.57 413.53 C318.57
									 325.7 247.12 254.24 159.29 254.24 C71.46 254.24 0 325.7 0 413.53 C0 476.77 37.43 534.05 95.36
									 559.46 L106.99 532.94 C59.58 512.14 28.96 465.27 28.96 413.52 Z" class="st6"/>
					</g>
					<g id="shape426-20" v:mID="426" v:groupContext="shape" transform="translate(102.907,1.13687E-13)">
						<title>Planilha.426</title>
						<path d="M147.08 455.93 L168.51 455.93 L115.77 508.68 L73.04 465.94 L0 538.98 L20.48 559.46 L73.04 506.9
									 L115.77 549.63 L186.7 478.7 L186.7 495.55 L215.66 495.55 L215.66 426.97 L147.08 426.97 L147.08
									 455.93 Z" class="st6"/>
					</g>
				</g>
				<g id="group427-22" transform="translate(65.8689,-105.136)" v:mID="427" v:groupContext="group">
					<title>Planilha.427</title>
					<g id="shape428-23" v:mID="428" v:groupContext="shape">
						<title>Planilha.428</title>
						<path d="M185 476.24 C176.75 473.49 171.25 469.36 171.25 465.24 C171.25 461.11 176.75 456.3 185 454.23 C188.44
									 452.86 190.51 449.42 189.82 445.98 C187.07 433.6 182.94 422.6 175.38 412.28 C173.31 409.53 169.87
									 408.15 166.43 410.22 C158.87 414.34 151.3 415.03 148.55 412.28 C145.8 409.53 146.49 401.96 150.62
									 394.4 C151.99 390.96 151.3 387.52 148.55 385.46 C138.24 378.58 126.55 373.77 114.85 371.02 C111.41
									 370.33 107.98 372.39 106.6 375.83 C103.85 384.08 99.72 389.58 95.6 389.58 C91.47 389.58 86.66
									 384.08 84.59 375.83 C83.22 372.39 79.78 370.33 76.34 371.02 C63.96 373.77 52.96 377.89 42.64
									 385.46 C39.2 386.83 38.51 390.96 39.89 393.71 C44.02 401.28 44.7 408.84 41.95 411.59 C39.2 414.34
									 32.32 413.66 24.07 409.53 C20.63 408.15 17.19 408.84 15.13 411.59 C8.25 421.91 3.44 433.6 0.69
									 445.29 C0 448.73 2.06 452.17 5.5 453.54 C13.75 456.3 19.26 460.42 19.26 464.55 C19.26 468.68
									 13.75 473.49 5.5 475.55 C2.06 476.93 0 480.37 0.69 483.81 C3.44 496.18 7.57 507.19 15.13 517.51
									 C17.19 520.26 20.63 521.63 24.07 519.57 C31.64 515.44 39.2 514.75 41.95 517.51 C44.7 520.26
									 44.02 527.82 39.89 535.39 C38.51 538.83 39.2 542.26 41.95 544.33 C52.27 551.2 63.96 556.02 75.65
									 558.77 C79.09 559.46 82.53 557.39 83.91 553.96 C86.66 545.7 90.78 540.2 94.91 540.2 C99.04 540.2
									 103.85 545.7 105.91 553.96 C106.6 556.71 109.35 558.77 112.79 558.77 C113.48 558.77 113.48 558.77
									 114.17 558.77 C126.55 556.02 137.55 551.89 147.87 544.33 C150.62 542.26 151.99 538.83 149.93
									 535.39 C145.8 527.82 145.11 520.26 147.87 517.51 C150.62 514.75 158.18 515.44 165.75 519.57
									 C169.19 520.94 172.62 520.26 174.69 517.51 C181.56 507.19 186.38 495.5 189.13 483.81 C190.51
									 481.05 188.44 477.62 185 476.24 ZM95.6 513.38 C68.77 513.38 47.45 492.06 47.45 465.24 C47.45
									 438.41 68.77 417.09 95.6 417.09 C122.42 417.09 143.74 438.41 143.74 465.24 C143.74 492.06 122.42
									 513.38 95.6 513.38 Z" class="st7"/>
					</g>
					<g id="group429-25" transform="translate(49.5464,-48.8587)" v:mID="429" v:groupContext="group">
						<title>Planilha.429</title>
						<g id="shape430-26" v:mID="430" v:groupContext="shape">
							<title>Planilha.430</title>
							<path d="M45.71 468.04 C20.48 468.04 0 488.52 0 513.75 C0 538.98 20.48 559.46 45.71 559.46 C70.94 559.46
										 91.41 538.98 91.41 513.75 C91.41 488.52 70.94 468.04 45.71 468.04 ZM52.15 541.59 L52.15
										 550.32 L39.95 550.32 L39.95 541.49 C32.13 539.85 25.5 534.82 25 525.95 L33.96 525.95 C34.42
										 530.75 37.71 534.5 46.07 534.5 C55.03 534.5 57.04 530.02 57.04 527.23 C57.04 523.44 55.03
										 519.88 44.84 517.45 C33.5 514.71 25.73 510.05 25.73 500.68 C25.73 492.82 32.09 487.7 39.95
										 486.01 L39.95 477.19 L52.15 477.19 L52.15 486.1 C60.65 488.16 64.9 494.6 65.18 501.59 L56.22
										 501.59 C55.99 496.52 53.29 493.05 46.07 493.05 C39.22 493.05 35.1 496.15 35.1 500.54 C35.1
										 504.38 38.07 506.9 47.31 509.27 C56.54 511.65 66.41 515.63 66.41 527.14 C66.37 535.51 60.1
										 540.08 52.15 541.59 Z" class="st8"/>
						</g>
					</g>
				</g>
			</g>
			<g id="shape431-28" v:mID="431" v:groupContext="shape" transform="translate(177.674,-215.067)">
				<title>Planilha.431</title>
				<path d="M94.65 472.75 L0 472.75 L0 559.46 L93.3 559.46 C90.11 546.31 88.45 532.66 88.45 518.74 C88.45 502.82 90.61
							 487.4 94.65 472.75 Z" class="st9"/>
			</g>
		</g>
	</g>
</svg>
