<?xml version="1.0" encoding="UTF-8" standalone="no"?>
<!DOCTYPE svg PUBLIC "-//W3C//DTD SVG 1.1//EN" "http://www.w3.org/Graphics/SVG/1.1/DTD/svg11.dtd">
<!-- Gerado pelo Microsoft Visio, SVG Export save.svg save -->
<svg xmlns="http://www.w3.org/2000/svg" xmlns:xlink="http://www.w3.org/1999/xlink" xmlns:ev="http://www.w3.org/2001/xml-events"
		xmlns:v="http://schemas.microsoft.com/visio/2003/SVGExtensions/" width="8.33333in" height="8.33333in" viewBox="0 0 600 600"
		xml:space="preserve" color-interpolation-filters="sRGB" class="st2">
	<v:documentProperties v:langID="1046" v:viewMarkup="false"/>

	<style type="text/css">
	<![CDATA[
		.st1 {fill:#000000;stroke:none;stroke-linecap:butt;stroke-width:18.75}
		.st2 {fill:none;fill-rule:evenodd;font-size:12px;overflow:visible;stroke-linecap:square;stroke-miterlimit:3}
	]]>
	</style>

	<g v:mID="0" v:index="1" v:groupContext="foregroundPage">
		<title>save</title>
		<v:pageProperties v:drawingScale="1" v:pageScale="1" v:drawingUnits="19" v:shadowOffsetX="9" v:shadowOffsetY="-9"/>
		<g id="group1-1" v:mID="1" v:groupContext="group">
			<v:userDefs/>
			<title>save-floppy</title>
			<desc>Created with Sketch Beta.</desc>
			<g id="shape2-2" v:mID="2" v:groupContext="shape">
				<title>save-floppy</title>
				<path d="M337.5 93.75 C337.5 83.38 345.9 75 356.25 75 C366.6 75 375 83.38 375 93.75 L375 168.75 C375 179.12 366.6
							 187.5 356.25 187.5 C345.9 187.5 337.5 179.12 337.5 168.75 L337.5 93.75 ZM168.75 225 L431.25 225 C441.6
							 225 450 216.62 450 206.25 L450 0 L150 0 L150 206.25 C150 216.62 158.4 225 168.75 225 ZM525 0 L487.5
							 0 L487.5 225 C487.5 245.7 470.7 262.5 450 262.5 L150 262.5 C129.3 262.5 112.5 245.7 112.5 225 L112.5
							 0 L75 0 C33.58 0 0 33.58 0 75 L0 525 C0 566.42 33.58 600 75 600 L525 600 C566.42 600 600 566.42 600
							 525 L600 75 C600 33.58 566.42 0 525 0 Z" class="st1"/>
			</g>
		</g>
	</g>
</svg>
